<svg xmlns="http://www.w3.org/2000/svg" viewBox="0 0 512 512" id="spider-web">
  <path fill="#f66" d="M183.52 429.507a18.82478 18.82478 0 0 1 4.72 12.59c0 9.92-7.39 17.97-16.5 17.97s-16.5-8.05-16.5-17.97a18.82478 18.82478 0 0 1 4.72-12.59M333.52 459.507a18.82478 18.82478 0 0 1 4.72 12.59c0 9.92-7.39 17.97-16.5 17.97s-16.5-8.05-16.5-17.97a18.82478 18.82478 0 0 1 4.72-12.59"></path>
  <path fill="#ff4e4e" d="M333.52,459.507H324.9613a18.82481,18.82481,0,0,1,4.72,12.59009c0,8.30542-5.18762,15.28052-12.22058,17.33716a15.1975,15.1975,0,0,0,4.2793.63281c9.11,0,16.5-8.05,16.5-17.97A18.82485,18.82485,0,0,0,333.52,459.507Z"></path>
  <ellipse cx="321.741" cy="436.154" fill="#4a4f60" rx="24.467" ry="26.646"></ellipse>
  <path fill="#3b3f4d" d="M321.74066,409.50793a22.61335,22.61335,0,0,0-7.5,1.28076c9.84284,3.44922,16.967,13.49927,16.967,25.36548s-7.1242,21.91626-16.967,25.36548a22.6132,22.6132,0,0,0,7.5,1.28052c13.51276,0,24.467-11.92993,24.467-26.646C346.2077,421.43786,335.25342,409.50793,321.74066,409.50793Z"></path>
  <ellipse cx="171.741" cy="406.154" fill="#4a4f60" rx="24.467" ry="26.646"></ellipse>
  <path fill="#ff4e4e" d="M183.52,429.507H174.9613a18.82481,18.82481,0,0,1,4.72,12.59009c0,8.30542-5.18762,15.28052-12.22058,17.33716a15.1975,15.1975,0,0,0,4.2793.63281c9.11,0,16.5-8.05,16.5-17.97A18.82485,18.82485,0,0,0,183.52,429.507Z"></path>
  <path fill="#3b3f4d" d="M171.74066,379.50793a22.61335,22.61335,0,0,0-7.5,1.28076c9.84284,3.44922,16.967,13.49927,16.967,25.36548s-7.1242,21.91626-16.967,25.36548a22.6132,22.6132,0,0,0,7.5,1.28052c13.51276,0,24.467-11.92993,24.467-26.646C196.2077,391.43786,185.25342,379.50793,171.74066,379.50793Z"></path>
  <path fill="#272a33" d="M442.33459,186.335H429.82971A161.988,161.988,0,0,1,384.21936,76.22241l8.84277-8.84253a7.50058,7.50058,0,0,0-10.60742-10.60742L373.61194,65.615A161.98327,161.98327,0,0,1,263.49963,20.00488V7.5a7.5,7.5,0,0,0-15,0V20.00488A161.981,161.981,0,0,1,138.38806,65.615l-8.84253-8.84253a7.50058,7.50058,0,0,0-10.60742,10.60742l8.84253,8.84253A161.98127,161.98127,0,0,1,82.16955,186.335H69.66565a7.5,7.5,0,0,0,0,15h12.5039a161.98188,161.98188,0,0,1,45.61109,110.11157l-8.84253,8.84253a7.50058,7.50058,0,0,0,10.60742,10.60742l8.84253-8.84252a164.81733,164.81733,0,0,1,25.85181,2.51V372.1499a31.43413,31.43413,0,0,0-14.762,8.717,31.16077,31.16077,0,0,1,.82447-19.43921,7.5,7.5,0,0,0-14.00391-5.375c-2.042,5.32032-6.05859,19.30176.70605,34.19239a41.77146,41.77146,0,0,0,3.77051,6.60107,36.29936,36.29936,0,0,0-1.001,8.49072c0,.87915.04151,1.74781.10279,2.6106a21.83106,21.83106,0,0,1-3.43091-2.1438,22.56969,22.56969,0,0,1-8.26758-13.39453,7.5,7.5,0,1,0-14.72265,2.87109,37.82206,37.82206,0,0,0,13.88476,22.44336,37.10109,37.10109,0,0,0,18.33643,7.34619,33.84147,33.84147,0,0,0,4.38037,5.32764,26.71393,26.71393,0,0,0-2.31738,10.88281q0,.64637.03076,1.28492A65.579,65.579,0,0,0,130.6051,472.627a7.50034,7.50034,0,1,0,14.52539,3.7461,50.69277,50.69277,0,0,1,8.7644-18.08326,23.05345,23.05345,0,0,0,35.91456-.27514,50.53188,50.53188,0,0,1,8.98217,18.3584A7.50034,7.50034,0,1,0,213.317,472.627a65.61559,65.61559,0,0,0-17.59765-30.49218c.009-.28443.02051-.56788.02051-.8545a26.71954,26.71954,0,0,0-2.31641-10.88159,33.85351,33.85351,0,0,0,4.38037-5.32764,37.10067,37.10067,0,0,0,18.34717-7.34741,37.8479,37.8479,0,0,0,13.88574-22.44043,7.50008,7.50008,0,1,0-14.72168-2.877,22.59024,22.59024,0,0,1-8.27051,13.39746,21.58332,21.58332,0,0,1-3.43994,2.14478c.06152-.863.103-1.73194.103-2.61158a36.34776,36.34776,0,0,0-.74658-7.31591,46.22517,46.22517,0,0,0,3.41943-5.83057c7.42969-15.21875,4.2334-29.99023,2.51465-35.63477a7.5,7.5,0,0,0-14.34961,4.36914,35.45646,35.45646,0,0,1,.01367,20.53077,31.52134,31.52134,0,0,0-15.31933-9.30616v-44.1831A162.10444,162.10444,0,0,1,248.49963,367.665V380.169a7.5,7.5,0,0,0,15,0V367.665a162.73879,162.73879,0,0,1,50.74024-33.32349V402.1499a31.43413,31.43413,0,0,0-14.762,8.717,31.16077,31.16077,0,0,1,.82447-19.43921,7.5,7.5,0,0,0-14.00391-5.375c-2.042,5.32032-6.05859,19.30176.70605,34.19239a41.77146,41.77146,0,0,0,3.77051,6.60107,36.29936,36.29936,0,0,0-1.001,8.49072c0,.8794.04151,1.74805.10279,2.61084a21.85485,21.85485,0,0,1-3.43091-2.144,22.56969,22.56969,0,0,1-8.26758-13.39453,7.5,7.5,0,1,0-14.72265,2.87109,37.82206,37.82206,0,0,0,13.88476,22.44336,37.10109,37.10109,0,0,0,18.33643,7.34619,33.84147,33.84147,0,0,0,4.38037,5.32764,26.71393,26.71393,0,0,0-2.31738,10.88281q0,.64637.03076,1.28492A65.579,65.579,0,0,0,280.6051,502.627a7.50034,7.50034,0,1,0,14.52539,3.7461,50.69277,50.69277,0,0,1,8.7644-18.08326,23.05318,23.05318,0,0,0,35.91431-.27514,50.52424,50.52424,0,0,1,8.98242,18.3584A7.50034,7.50034,0,1,0,363.317,502.627a65.61559,65.61559,0,0,0-17.59765-30.49218c.00879-.28443.02051-.56788.02051-.8545a26.71545,26.71545,0,0,0-2.31641-10.88159,33.83967,33.83967,0,0,0,4.38037-5.32764,37.10067,37.10067,0,0,0,18.34717-7.34741,37.8479,37.8479,0,0,0,13.88574-22.44043,7.50008,7.50008,0,1,0-14.72168-2.877,22.59024,22.59024,0,0,1-8.27051,13.39746,21.56152,21.56152,0,0,1-3.43994,2.14478c.06152-.863.103-1.73194.103-2.61158a36.36586,36.36586,0,0,0-.74658-7.31591,46.25412,46.25412,0,0,0,3.41943-5.83057c7.42969-15.21875,4.2334-29.99023,2.51465-35.63477a7.5,7.5,0,0,0-14.34961,4.36914,35.45646,35.45646,0,0,1,.01367,20.53077,31.52247,31.52247,0,0,0-15.31933-9.30616V328.98535a163.55054,163.55054,0,0,1,44.37207-6.93139l8.84277,8.84252a7.50058,7.50058,0,0,0,10.60742-10.60742l-8.84277-8.84253A161.98564,161.98564,0,0,1,429.82971,201.335h12.50488a7.5,7.5,0,0,0,0-15ZM171.73987,451.75c-4.9629,0-9-4.69629-9-10.46973a12.02373,12.02373,0,0,1,.39477-3.06421,29.8547,29.8547,0,0,0,17.21069.00049,12.01844,12.01844,0,0,1,.39454,3.06372C180.73987,447.05371,176.70276,451.75,171.73987,451.75Zm16.96777-46.41309a19.63591,19.63591,0,0,1-8.88257,16.82984c-.03833.02173-.07715.04077-.115.06323a15.22128,15.22128,0,0,1-15.95679-.01025c-.01562-.009-.03149-.01661-.04712-.02539a18.30755,18.30755,0,0,1-6.8186-7.62232c-.03394-.07056-.06714-.14136-.103-.21069a20.98734,20.98734,0,0,1-2.0105-9.02442c0-10.55664,7.61133-19.1455,16.9668-19.1455S188.70764,394.78027,188.70764,405.33691ZM321.73987,481.75c-4.9629,0-9-4.69629-9-10.46973a12.02373,12.02373,0,0,1,.39477-3.06421,29.8547,29.8547,0,0,0,17.21069.00049,12.01844,12.01844,0,0,1,.39454,3.06372C330.73987,477.05371,326.70276,481.75,321.73987,481.75Zm16.96777-46.41309a19.63623,19.63623,0,0,1-8.88355,16.83057c-.03735.021-.07544.03955-.1123.06152a15.22158,15.22158,0,0,1-15.95459-.00683c-.02222-.01319-.04541-.02417-.06787-.03711a19.62876,19.62876,0,0,1-8.91529-16.84815c0-10.55664,7.61133-19.1455,16.9668-19.1455S338.70764,424.78027,338.70764,435.33691ZM409.73938,186.335h-31.1167a203.3977,203.3977,0,0,1-30.61328-73.90234l22.00439-22.0044A176.44911,176.44911,0,0,0,409.73938,186.335Zm-74.30713,76.324-20.28687-20.28663c2.20288-7.0747,4.721-14.0935,7.54663-20.9143,2.82764-6.82544,6.00977-13.56861,9.45142-20.12305h28.6897a218.34762,218.34762,0,0,0-25.40088,61.324ZM166.21057,231.02637A219.26448,219.26448,0,0,0,151.16589,201.335h28.6897c3.44092,6.55322,6.624,13.29663,9.45263,20.124,2.82569,6.82325,5.34351,13.8418,7.5459,20.91407L176.5675,262.65967A219.24409,219.24409,0,0,0,166.21057,231.02637ZM176.5675,125.00928l20.28687,20.28686c-2.20191,7.07129-4.71949,14.09009-7.54615,20.91382-2.82812,6.82691-6.011,13.57056-9.45263,20.125H151.16565a219.23882,219.23882,0,0,0,15.04492-29.69238A219.21493,219.21493,0,0,0,176.5675,125.00928Zm132.26514,46.93994c2.00757,4.84668,4.18994,9.65039,6.4978,14.38574H274.10705L303.256,157.186C304.97229,162.16479,306.82531,167.10327,308.83264,171.94922Zm-5.57617,58.53418L274.108,201.335H315.3302c-2.30762,4.73584-4.48926,9.53858-6.49561,14.38281C306.82824,220.55957,304.97448,225.49951,303.25647,230.4834ZM203.16565,215.71875c-2.00684-4.84546-4.189-9.64844-6.49683-14.38379h41.22339L208.743,230.48413C207.02551,225.50122,205.17175,220.56152,203.16565,215.71875Zm5.57739-58.53394L237.89319,186.335H196.66882c2.30835-4.73633,4.49048-9.54028,6.49683-14.38476C205.17224,167.10645,207.02575,162.16675,208.743,157.18481Zm54.75659-22.68139c4.73633,2.30835,9.54,4.49072,14.38574,6.49853,4.84546,2.00659,9.78443,3.85987,14.76367,5.57617l-29.14941,29.14942Zm-15,41.22314L219.351,146.57788c4.98169-1.71753,9.92114-3.57129,14.76392-5.57788,4.84545-2.00684,9.64892-4.189,14.38476-6.49658Zm0,36.21582v41.22315c-4.73975-2.30982-9.54394-4.49219-14.38574-6.49756-4.84473-2.00635-9.78369-3.85938-14.76367-5.57617Zm15-.001,29.1499,29.1499c-4.98022,1.717-9.91992,3.5708-14.76611,5.57764-4.84448,2.00634-9.64771,4.18823-14.38379,6.49609Zm41.03809-77.252c-7.06568-2.20044-14.08374-4.71826-20.91211-7.5459-6.8274-2.82861-13.57105-6.01171-20.126-9.45312V89.001A219.17974,219.17974,0,0,0,293.191,104.04492a219.24905,219.24905,0,0,0,31.63354,10.35767Zm-56.03809-16.99878c-6.55347,3.44117-13.29687,6.62329-20.125,9.45191-6.82349,2.82617-13.84155,5.34472-20.91235,7.54663l-20.28687-20.28687a219.36825,219.36825,0,0,0,31.63281-10.35742A219.17916,219.17916,0,0,0,248.49963,89.001Zm-41.03809,135.2898c7.06763,2.20117,14.08594,4.719,20.91309,7.54687,6.81983,2.82349,13.56348,6.00586,20.125,9.45118V298.669a218.2664,218.2664,0,0,0-61.32471-25.40186Zm56.03809,16.9978c6.55469-3.44165,13.2981-6.62378,20.123-9.45093,6.82886-2.82788,13.84814-5.34643,20.91553-7.54736l20.28686,20.28687a218.35436,218.35436,0,0,0-61.32544,25.40185Zm68.644-83.64331c-3.44091-6.55225-6.624-13.2959-9.45263-20.125-2.82862-6.82934-5.34644-13.84766-7.54639-20.9126L335.43176,125.01a218.32249,218.32249,0,0,0,25.40234,61.325ZM359.40637,79.8208,337.402,101.825a203.695,203.695,0,0,1-38.4707-11.63745,203.59659,203.59659,0,0,1-35.43164-18.97412V40.09521A176.44243,176.44243,0,0,0,359.40637,79.8208ZM248.49963,40.09521V71.21338A203.52612,203.52612,0,0,1,213.068,90.18652a203.66384,203.66384,0,0,1-38.47021,11.63819L152.59387,79.8208A176.442,176.442,0,0,0,248.49963,40.09521Zm-106.51318,50.333,22.00342,22.00342a203.6255,203.6255,0,0,1-11.63672,38.4707A203.657,203.657,0,0,1,133.3778,186.335H102.26013A176.4397,176.4397,0,0,0,141.98645,90.42822ZM102.26013,201.335h31.11743a203.68069,203.68069,0,0,1,18.97559,35.43164,203.65292,203.65292,0,0,1,11.63672,38.4707l-22.00342,22.00342A176.439,176.439,0,0,0,102.26013,201.335Zm50.33374,106.51318,22.00342-22.00341a203.37865,203.37865,0,0,1,73.90234,30.61206v31.11767A176.4391,176.4391,0,0,0,152.59387,307.84814Zm166.99365,8.469c-.07226.02148-.14282.04614-.21411.06982a176.63415,176.63415,0,0,0-55.87378,31.1875V316.45679a203.37379,203.37379,0,0,1,73.90332-30.61206l22.00342,22.00341A177.43275,177.43275,0,0,0,319.58752,316.31714Zm50.42627-19.07642L348.0094,275.23657A203.398,203.398,0,0,1,378.62072,201.335h31.11866A176.44762,176.44762,0,0,0,370.01379,297.24072Z"></path>
</svg>
